<?xml version="1.0" encoding="utf-8"?>
<svg xmlns="http://www.w3.org/2000/svg" viewBox="0 0 283.465 105.701">
    <path fill="white" d="M53.234,62.267c1.158-2.888-0.566-6.306-3.693-7.252c-2.893-0.875-5.762,0.85-6.531,3.405
	c-0.91,3.021,0.396,5.617,2.958,6.703C48.645,66.362,52.146,65.312,53.234,62.267z M48.659,67.905
	c-2.294,0.473-3.671,1.941-3.086,3.996c0.487,1.709,2.579,2.109,4.307,1.746c1.729-0.361,3.034-1.842,2.958-3.291
	C52.763,68.907,50.954,67.431,48.659,67.905z M55.451,56.612c1.594,1.259,3.569,0.576,4.478-0.478
	c0.842-0.982,0.672-3.029-0.839-4.189c-1.494-1.15-3.573-1.034-4.81,0.156C53.043,53.29,53.565,55.125,55.451,56.612z
	 M54.877,63.417c-1.15,3.035,0.305,6.063,2.649,6.422c2.344,0.357,4.574-1.873,4.964-4.176c0.391-2.303-0.16-4.5-2.234-5.398
	C58.253,59.397,56.029,60.385,54.877,63.417z M46.91,45.866c-2.307,0.214-4.313,1.295-4.776,3.386
	c-0.562,2.537,1.892,4.055,4.991,3.618c3.314-0.469,5.565-2.109,5.066-4.224C51.688,46.531,49.219,45.651,46.91,45.866z
	 M34.896,67.714c0.638,2.562,3.241,4.365,5.594,3.33c2.477-1.09,3.018-3.5,1.956-5.92c-1.13-2.572-3.08-3.713-5.237-3.027
	C35.509,62.636,34.247,65.11,34.896,67.714z M36.098,53.57c-1.012,1.134-1.71,3.349-0.585,4.585
	c1.127,1.237,3.469,1.168,4.845-0.501c1.372-1.667,1.231-3.626-0.116-4.741C38.894,51.799,37.113,52.435,36.098,53.57z
	 M153.142,54.31c0,9.09-3.816,16.002-12.254,16.002c-5.624,0-11.447-4.465-11.447-15.302c0-12.935,8.035-15.304,12.051-15.304
	C148.323,39.705,153.142,44.522,153.142,54.31z M200.341,57.356c-4.312,0-12.932,2.598-12.932,7.795
	c0,3.154,2.873,5.939,7.389,5.939c5.338,0,10.672-4.453,10.672-9.279C205.47,59.398,204.034,57.356,200.341,57.356z M45.642,89.19
	c0.338,1.713,1.399,5.309,2.949,7.758H9.921V60.282c1.272,0.895,3.087,1.748,5.611,2.397c9.033,2.323,16.887-0.848,16.887-0.848
	c-1.917,0.915-3.578,2.98-5.079,5.847c-1.501,2.869-2.798,6.982-4.553,10.096c-0.971,1.719-2.901,4.666-1.827,6.906
	c1.227,2.561,3.994,2.131,6.608,0.848c3.527-1.73,7.913-9.467,9.906-10.027c0.176,2.057-0.858,7.064-0.454,9.104
	c0.417,2.098,2.274,2.16,3.293,1.574c2.182-1.258,4.429-7.787,4.429-7.787S44.713,84.503,45.642,89.19z M225.319,38.928
	l13.895,35.485c1.545,4.414,5.514,6.143,8.162,6.143h5.074c4.189,0,7.057-2.111,8.82-6.523l12.273-30.874v53.79H102.335
	c4.079-2.771,6.612-7.506,6.612-12.609V37.774c0-5.185-2.073-7.67-6.427-7.67h-3.318c-3.316,0-6.012,2.902-6.012,6.633v41.655
	c0,3.68-0.717,6.082-4.135,8.664c-1.839,1.387-2.914,3.342-2.914,5.988c0,1.561,0.321,2.875,1.047,3.904H54.562
	c1.264-3.135,1.49-8.6,1.605-12.881c0.174-6.414-0.228-10.617-0.228-10.617s3.424-0.432,9.095,5.027
	c5.778,5.564,11.024,6.848,13.163,5.033c1.592-1.348,2.201-4.465-2.923-11.434c-5.144-7.004-10.06-9.707-10.06-9.707
	c1.27,0.186,5.173,0.836,7.577,0.729c2.402-0.105,4.078-0.754,4.078-2.844c0-4.244-11.211-6.771-11.211-6.771
	c2.191-2.719,10.659-4.876,13.466-6.255c2.655-1.303,3.318-2.688,3.053-4.114c-0.193-1.046-2.147-4.127-9.513-3.893
	c-7.364,0.234-15.48,6.16-15.48,6.16c-0.804-4.304,1.707-9.216,1.869-11.091c0.145-1.695-1.621-4.811-5.675-1.589
	c-3.958,3.145-5.333,10.051-5.333,10.051c-2.4-2.012-4.305-8.598-5.3-14.848c-0.139-0.87-0.85-5.608-3.333-5.754
	c-2.906-0.171-5.681,4.219-5.89,9.178c-0.291,6.884,4.273,13.962,4.273,13.962c-1.187-0.087-3.975-1.386-5.567-2.273
	c-1.527-0.851-2.919-2.201-4.688-2.448c-1.77-0.246-3.271,0.97-2.83,3.162c0.632,3.137,5.725,7.098,5.725,7.098
	c-3.647-0.375-11.348-0.672-15.956,0.404c-2.049,0.478-3.507,1.02-4.555,1.602V9.922h83.469c-0.99,1.098-1.588,2.625-1.588,4.719
	c0,3.496,0.999,7.244,9.745,7.244c4.746,0,8.744-1.75,8.744-7.495c0-1.67-0.4-3.24-1.484-4.468h45.437
	c-0.578,1.237-0.822,2.842-0.822,4.612v11.462c-0.209,3.936-1.037,5.607-4.146,5.607c-3.732,0-5.805-1.5-12.027-1.5
	c-8.915,0-22.182,5.342-22.182,25.403c0,20.061,13.685,25.215,22.39,25.215c7.672,0,8.293-2.625,13.477-2.625
	c3.316,0,4.354,1.5,9.535,1.5c4.768,0,6.842-2.062,6.842-6V14.534c0-1.77-0.213-3.375-0.791-4.612h107.025V30.64
	c-1.416-0.481-3.127-0.536-4.553-0.536c-5.598,0-7.121,1.533-9.326,8.824l-3.969,17.658c-0.883,3.262-3.592,4.987-4.916,4.987
	c-2.207,0-4.035-1.535-5.137-4.987l-4.854-20.727c-1.104-3.836-4.381-5.755-8.129-5.755h-2.963
	C226.61,30.104,222.452,31.637,225.319,38.928z M220.28,46.601c0-13.498-8.707-16.498-23.217-16.498
	c-16.586,0-20.939,7.125-20.939,10.498c0,3.187,3.109,3.75,6.012,3.75c8.707,0,8.084-6.187,15.963-6.187
	c3.938,0,7.256,2.438,7.256,6.187c0,2.063-2.074,4.5-8.916,5.25c-16.793,2.062-24.252,8.437-24.252,16.874
	c0,8.248,6.217,14.248,17.826,14.248c7.051,0,10.363-3,15.133-3c2.695,0,4.77,1.688,9.123,1.688c3.523,0,6.012-0.938,6.012-4.688
	V46.601z"/>
</svg>
